<svg width="44" height="44" viewBox="0 0 44 44" fill="none" xmlns="http://www.w3.org/2000/svg">
    <path
        d="M39.2857 0H4.71429C3.46398 0 2.26488 0.496681 1.38078 1.38078C0.496682 2.26488 0 3.46397 0 4.71427V26.7142C0 27.9645 0.496682 29.1636 1.38078 30.0477C2.26488 30.9318 3.46398 31.4285 4.71429 31.4285H11.9271L16.17 35.6871C16.3168 35.8327 16.491 35.9479 16.6824 36.0261C16.8739 36.1043 17.0789 36.144 17.2857 36.1428H20.4286V36.7399L11.8643 41.0299C11.5243 41.2345 11.2743 41.5601 11.1645 41.9414C11.0546 42.3226 11.0931 42.7313 11.2721 43.0854C11.4512 43.4395 11.7575 43.7128 12.1297 43.8503C12.5019 43.9879 12.9123 43.9796 13.2786 43.827L20.4286 40.2599V40.857C20.4286 41.2738 20.5941 41.6735 20.8888 41.9682C21.1835 42.2629 21.5832 42.4285 22 42.4285C22.4168 42.4285 22.8165 42.2629 23.1112 41.9682C23.4059 41.6735 23.5714 41.2738 23.5714 40.857V40.2599L30.7214 43.827C30.9388 43.9434 31.182 44.0028 31.4286 43.9999C31.7188 43.999 32.003 43.9178 32.2499 43.7652C32.4968 43.6127 32.6966 43.3948 32.8271 43.1356C33.0135 42.7645 33.0454 42.3347 32.9159 41.9401C32.7863 41.5455 32.5058 41.2183 32.1357 41.0299L23.5714 36.7399V36.1428H26.7143C26.9211 36.144 27.1261 36.1043 27.3176 36.0261C27.509 35.9479 27.6832 35.8327 27.83 35.6871L32.0729 31.4285H39.2857C40.536 31.4285 41.7351 30.9318 42.6192 30.0477C43.5033 29.1636 44 27.9645 44 26.7142V4.71427C44 3.46397 43.5033 2.26488 42.6192 1.38078C41.7351 0.496681 40.536 0 39.2857 0ZM26.07 32.9999H17.93L16.3586 31.4285H27.6414L26.07 32.9999ZM40.8571 26.7142C40.8571 27.131 40.6916 27.5307 40.3969 27.8254C40.1022 28.1201 39.7025 28.2856 39.2857 28.2856H4.71429C4.29752 28.2856 3.89782 28.1201 3.60312 27.8254C3.30842 27.5307 3.14286 27.131 3.14286 26.7142V4.71427C3.14286 4.29751 3.30842 3.89781 3.60312 3.60311C3.89782 3.30841 4.29752 3.14285 4.71429 3.14285H39.2857C39.7025 3.14285 40.1022 3.30841 40.3969 3.60311C40.6916 3.89781 40.8571 4.29751 40.8571 4.71427V26.7142Z"
        fill="#3E0000" />
    <path
        d="M33.0011 7.85742H11.0011C10.5843 7.85742 10.1846 8.02298 9.88995 8.31768C9.59525 8.61238 9.42969 9.01208 9.42969 9.42885C9.42969 9.84561 9.59525 10.2453 9.88995 10.54C10.1846 10.8347 10.5843 11.0003 11.0011 11.0003H33.0011C33.4179 11.0003 33.8176 10.8347 34.1123 10.54C34.407 10.2453 34.5725 9.84561 34.5725 9.42885C34.5725 9.01208 34.407 8.61238 34.1123 8.31768C33.8176 8.02298 33.4179 7.85742 33.0011 7.85742Z"
        fill="#3E0000" />
    <path
        d="M11.0011 17.2854H18.8583C19.275 17.2854 19.6747 17.1199 19.9694 16.8252C20.2641 16.5305 20.4297 16.1308 20.4297 15.714C20.4297 15.2972 20.2641 14.8975 19.9694 14.6028C19.6747 14.3081 19.275 14.1426 18.8583 14.1426H11.0011C10.5843 14.1426 10.1846 14.3081 9.88995 14.6028C9.59525 14.8975 9.42969 15.2972 9.42969 15.714C9.42969 16.1308 9.59525 16.5305 9.88995 16.8252C10.1846 17.1199 10.5843 17.2854 11.0011 17.2854Z"
        fill="#3E0000" />
    <path
        d="M26.7154 20.4287H11.0011C10.5843 20.4287 10.1846 20.5943 9.88995 20.889C9.59525 21.1837 9.42969 21.5834 9.42969 22.0001C9.42969 22.4169 9.59525 22.8166 9.88995 23.1113C10.1846 23.406 10.5843 23.5716 11.0011 23.5716H26.7154C27.1322 23.5716 27.5319 23.406 27.8266 23.1113C28.1213 22.8166 28.2868 22.4169 28.2868 22.0001C28.2868 21.5834 28.1213 21.1837 27.8266 20.889C27.5319 20.5943 27.1322 20.4287 26.7154 20.4287Z"
        fill="#3E0000" />
</svg>