<svg width="44" height="36" viewBox="0 0 44 36" fill="none" xmlns="http://www.w3.org/2000/svg">
    <path
        d="M39.2857 0H4.71429C3.46398 0 2.26488 0.568927 1.38078 1.58162C0.496682 2.59432 0 3.96783 0 5.4V30.6C0 32.0322 0.496682 33.4057 1.38078 34.4184C2.26488 35.4311 3.46398 36 4.71429 36H39.2857C40.536 36 41.7351 35.4311 42.6192 34.4184C43.5033 33.4057 44 32.0322 44 30.6V5.4C44 3.96783 43.5033 2.59432 42.6192 1.58162C41.7351 0.568927 40.536 0 39.2857 0ZM3.14286 30.6V5.4C3.14286 4.92261 3.30842 4.46477 3.60312 4.12721C3.89782 3.78964 4.29752 3.6 4.71429 3.6H12.5714V25.2C12.5714 25.6774 12.737 26.1352 13.0317 26.4728C13.3264 26.8104 13.7261 27 14.1429 27C14.5596 27 14.9593 26.8104 15.254 26.4728C15.5487 26.1352 15.7143 25.6774 15.7143 25.2V3.6H20.4286V32.4H4.71429C4.29752 32.4 3.89782 32.2104 3.60312 31.8728C3.30842 31.5352 3.14286 31.0774 3.14286 30.6ZM40.8571 30.6C40.8571 31.0774 40.6916 31.5352 40.3969 31.8728C40.1022 32.2104 39.7025 32.4 39.2857 32.4H23.5714V3.6H39.2857C39.7025 3.6 40.1022 3.78964 40.3969 4.12721C40.6916 4.46477 40.8571 4.92261 40.8571 5.4V30.6Z"
        fill="#3E0000" />
    <path
        d="M36.1434 9H28.2863C27.8695 9 27.4698 9.18964 27.1751 9.52721C26.8804 9.86477 26.7148 10.3226 26.7148 10.8C26.7148 11.2774 26.8804 11.7352 27.1751 12.0728C27.4698 12.4104 27.8695 12.6 28.2863 12.6H36.1434C36.5602 12.6 36.9599 12.4104 37.2546 12.0728C37.5493 11.7352 37.7148 11.2774 37.7148 10.8C37.7148 10.3226 37.5493 9.86477 37.2546 9.52721C36.9599 9.18964 36.5602 9 36.1434 9Z"
        fill="#3E0000" />
    <path
        d="M36.1451 16.2002H31.4308C31.014 16.2002 30.6143 16.3898 30.3196 16.7274C30.0249 17.065 29.8594 17.5228 29.8594 18.0002C29.8594 18.4776 30.0249 18.9354 30.3196 19.273C30.6143 19.6106 31.014 19.8002 31.4308 19.8002H36.1451C36.5619 19.8002 36.9616 19.6106 37.2563 19.273C37.551 18.9354 37.7165 18.4776 37.7165 18.0002C37.7165 17.5228 37.551 17.065 37.2563 16.7274C36.9616 16.3898 36.5619 16.2002 36.1451 16.2002Z"
        fill="#3E0000" />
    <path
        d="M36.1434 23.3994H28.2863C27.8695 23.3994 27.4698 23.5891 27.1751 23.9266C26.8804 24.2642 26.7148 24.722 26.7148 25.1994C26.7148 25.6768 26.8804 26.1346 27.1751 26.4722C27.4698 26.8098 27.8695 26.9994 28.2863 26.9994H36.1434C36.5602 26.9994 36.9599 26.8098 37.2546 26.4722C37.5493 26.1346 37.7148 25.6768 37.7148 25.1994C37.7148 24.722 37.5493 24.2642 37.2546 23.9266C36.9599 23.5891 36.5602 23.3994 36.1434 23.3994Z"
        fill="#3E0000" />
</svg>