<svg width="32" height="32" viewBox="0 0 32 32" fill="none" xmlns="http://www.w3.org/2000/svg">
    <path fill-rule="evenodd" clip-rule="evenodd"
        d="M16 0C16.7364 0 17.3334 0.596954 17.3334 1.33333V30.6667C17.3334 31.403 16.7364 32 16 32C15.2636 32 14.6667 31.403 14.6667 30.6667V1.33333C14.6667 0.596954 15.2636 0 16 0Z"
        fill="#3E0000" />
    <path fill-rule="evenodd" clip-rule="evenodd"
        d="M8.42405 7.09086C9.54926 5.96564 11.0754 5.3335 12.6667 5.3335H22.6667C23.4031 5.3335 24 5.93045 24 6.66683C24 7.40321 23.4031 8.00016 22.6667 8.00016H12.6667C11.7826 8.00016 10.9348 8.35135 10.3097 8.97647C9.68454 9.60159 9.33335 10.4494 9.33335 11.3335C9.33335 12.2176 9.68454 13.0654 10.3097 13.6905C10.9348 14.3156 11.7826 14.6668 12.6667 14.6668H19.3334C20.9247 14.6668 22.4508 15.299 23.576 16.4242C24.7012 17.5494 25.3334 19.0755 25.3334 20.6668C25.3334 22.2581 24.7012 23.7843 23.576 24.9095C22.4508 26.0347 20.9247 26.6668 19.3334 26.6668H8.00002C7.26364 26.6668 6.66669 26.0699 6.66669 25.3335C6.66669 24.5971 7.26364 24.0002 8.00002 24.0002H19.3334C20.2174 24.0002 21.0653 23.649 21.6904 23.0239C22.3155 22.3987 22.6667 21.5509 22.6667 20.6668C22.6667 19.7828 22.3155 18.9349 21.6904 18.3098C21.0653 17.6847 20.2174 17.3335 19.3334 17.3335H12.6667C11.0754 17.3335 9.54926 16.7014 8.42405 15.5761C7.29883 14.4509 6.66669 12.9248 6.66669 11.3335C6.66669 9.7422 7.29883 8.21607 8.42405 7.09086Z"
        fill="#3E0000" />
</svg>