<svg width="20" height="28" viewBox="0 0 20 28" fill="none" xmlns="http://www.w3.org/2000/svg">
    <path
        d="M17 0H3C2.20435 0 1.44129 0.316071 0.87868 0.87868C0.316071 1.44129 0 2.20435 0 3V25C0 25.7956 0.316071 26.5587 0.87868 27.1213C1.44129 27.6839 2.20435 28 3 28H17C17.7956 28 18.5587 27.6839 19.1213 27.1213C19.6839 26.5587 20 25.7956 20 25V3C20 2.20435 19.6839 1.44129 19.1213 0.87868C18.5587 0.316071 17.7956 0 17 0ZM3 2H17C17.2652 2 17.5196 2.10536 17.7071 2.29289C17.8946 2.48043 18 2.73478 18 3V15H2V3C2 2.73478 2.10536 2.48043 2.29289 2.29289C2.48043 2.10536 2.73478 2 3 2ZM17 26H3C2.73478 26 2.48043 25.8946 2.29289 25.7071C2.10536 25.5196 2 25.2652 2 25V17H18V25C18 25.2652 17.8946 25.5196 17.7071 25.7071C17.5196 25.8946 17.2652 26 17 26Z"
        fill="#3E0000" />
    <path
        d="M15.711 19.2899C15.618 19.1962 15.5074 19.1218 15.3855 19.071C15.2637 19.0203 15.133 18.9941 15.001 18.9941C14.8689 18.9941 14.7382 19.0203 14.6164 19.071C14.4945 19.1218 14.3839 19.1962 14.291 19.2899L13.521 20.0699L12.751 19.2899C12.5626 19.1016 12.3073 18.9958 12.041 18.9958C11.7747 18.9958 11.5193 19.1016 11.331 19.2899C11.1426 19.4782 11.0369 19.7336 11.0369 19.9999C11.0369 20.2662 11.1426 20.5216 11.331 20.7099L12.111 21.4799L11.331 22.2499C11.2372 22.3429 11.1628 22.4535 11.1121 22.5754C11.0613 22.6972 11.0352 22.8279 11.0352 22.9599C11.0352 23.0919 11.0613 23.2227 11.1121 23.3445C11.1628 23.4664 11.2372 23.577 11.331 23.6699C11.5033 23.8623 11.7434 23.9806 12.001 23.9999C12.1326 24.0007 12.263 23.9755 12.3849 23.9257C12.5067 23.8759 12.6175 23.8026 12.711 23.7099L13.481 22.9299L14.251 23.7099C14.3439 23.8037 14.4545 23.8781 14.5764 23.9288C14.6982 23.9796 14.8289 24.0057 14.961 24.0057C15.093 24.0057 15.2237 23.9796 15.3455 23.9288C15.4674 23.8781 15.578 23.8037 15.671 23.7099C15.7647 23.617 15.8391 23.5064 15.8898 23.3845C15.9406 23.2627 15.9668 23.132 15.9668 22.9999C15.9668 22.8679 15.9406 22.7372 15.8898 22.6154C15.8391 22.4935 15.7647 22.3829 15.671 22.2899L14.891 21.5199L15.671 20.7499C15.7735 20.6592 15.8563 20.5483 15.9142 20.4242C15.9721 20.3002 16.0039 20.1655 16.0077 20.0286C16.0114 19.8917 15.987 19.7555 15.936 19.6285C15.8849 19.5014 15.8084 19.3862 15.711 19.2899Z"
        fill="#3E0000" />
    <path
        d="M7.16809 19.4501L6.11809 21.0001L5.88809 20.5401C5.75791 20.3237 5.55071 20.1646 5.30808 20.0947C5.06545 20.0248 4.80536 20.0493 4.58003 20.1632C4.3547 20.2772 4.18081 20.4721 4.09327 20.709C4.00573 20.9458 4.01103 21.207 4.10809 21.4401L5.10809 23.4401C5.18635 23.5963 5.30415 23.7292 5.44977 23.8257C5.5954 23.9222 5.76376 23.9789 5.93809 23.9901H5.99809C6.1628 23.9892 6.32475 23.9477 6.46954 23.8692C6.61434 23.7907 6.7375 23.6776 6.82809 23.5401L8.82809 20.5401C8.94587 20.3205 8.97744 20.0649 8.91661 19.8233C8.85578 19.5816 8.70695 19.3714 8.49925 19.2338C8.29155 19.0962 8.03995 19.041 7.79373 19.0792C7.5475 19.1173 7.32439 19.246 7.16809 19.4401V19.4501Z"
        fill="#3E0000" />
    <path
        d="M5 9H8C8.26522 9 8.51957 8.89464 8.70711 8.70711C8.89464 8.51957 9 8.26522 9 8V5C9 4.73478 8.89464 4.48043 8.70711 4.29289C8.51957 4.10536 8.26522 4 8 4H5C4.73478 4 4.48043 4.10536 4.29289 4.29289C4.10536 4.48043 4 4.73478 4 5V8C4 8.26522 4.10536 8.51957 4.29289 8.70711C4.48043 8.89464 4.73478 9 5 9ZM6 6H7V7H6V6Z"
        fill="#3E0000" />
    <path
        d="M5 13H15C15.2652 13 15.5196 12.8946 15.7071 12.7071C15.8946 12.5196 16 12.2652 16 12C16 11.7348 15.8946 11.4804 15.7071 11.2929C15.5196 11.1054 15.2652 11 15 11H5C4.73478 11 4.48043 11.1054 4.29289 11.2929C4.10536 11.4804 4 11.7348 4 12C4 12.2652 4.10536 12.5196 4.29289 12.7071C4.48043 12.8946 4.73478 13 5 13Z"
        fill="#3E0000" />
    <path
        d="M12 6H15C15.2652 6 15.5196 5.89464 15.7071 5.70711C15.8946 5.51957 16 5.26522 16 5C16 4.73478 15.8946 4.48043 15.7071 4.29289C15.5196 4.10536 15.2652 4 15 4H12C11.7348 4 11.4804 4.10536 11.2929 4.29289C11.1054 4.48043 11 4.73478 11 5C11 5.26522 11.1054 5.51957 11.2929 5.70711C11.4804 5.89464 11.7348 6 12 6Z"
        fill="#3E0000" />
    <path
        d="M12 9H15C15.2652 9 15.5196 8.89464 15.7071 8.70711C15.8946 8.51957 16 8.26522 16 8C16 7.73478 15.8946 7.48043 15.7071 7.29289C15.5196 7.10536 15.2652 7 15 7H12C11.7348 7 11.4804 7.10536 11.2929 7.29289C11.1054 7.48043 11 7.73478 11 8C11 8.26522 11.1054 8.51957 11.2929 8.70711C11.4804 8.89464 11.7348 9 12 9Z"
        fill="#3E0000" />
</svg>