<svg width="44" height="44" viewBox="0 0 44 44" fill="none" xmlns="http://www.w3.org/2000/svg">
    <path
        d="M39.2857 21.1808H33V8.14129C32.9987 7.87283 32.9334 7.60886 32.81 7.37285C32.6867 7.13684 32.509 6.93609 32.2929 6.78844L22.8643 0.268672C22.6077 0.0934085 22.3072 0 22 0C21.6928 0 21.3923 0.0934085 21.1357 0.268672L11.7071 6.78844C11.491 6.93609 11.3133 7.13684 11.19 7.37285C11.0666 7.60886 11.0013 7.87283 11 8.14129V21.1808H4.71429C3.46398 21.1808 2.26488 21.696 1.38078 22.613C0.496682 23.53 0 24.7738 0 26.0706V42.3701C0 42.8023 0.165561 43.2169 0.460261 43.5226C0.754961 43.8283 1.15466 44 1.57143 44H42.4286C42.8453 44 43.245 43.8283 43.5397 43.5226C43.8344 43.2169 44 42.8023 44 42.3701V26.0706C44 24.7738 43.5033 23.53 42.6192 22.613C41.7351 21.696 40.536 21.1808 39.2857 21.1808ZM3.14286 26.0706C3.14286 25.6384 3.30842 25.2238 3.60312 24.9181C3.89782 24.6124 4.29752 24.4407 4.71429 24.4407H11V40.7401H3.14286V26.0706ZM14.1429 22.8108V8.95626L22 3.57745L29.8571 8.95626V40.7401H26.7143V26.0706C26.7143 25.6384 26.5487 25.2238 26.254 24.9181C25.9593 24.6124 25.5596 24.4407 25.1429 24.4407H18.8571C18.4404 24.4407 18.0407 24.6124 17.746 24.9181C17.4513 25.2238 17.2857 25.6384 17.2857 26.0706V40.7401H14.1429V22.8108ZM20.4286 40.7401V27.7006H23.5714V40.7401H20.4286ZM40.8571 40.7401H33V24.4407H39.2857C39.7025 24.4407 40.1022 24.6124 40.3969 24.9181C40.6916 25.2238 40.8571 25.6384 40.8571 26.0706V40.7401Z"
        fill="#3E0000" />
</svg>