<svg xmlns="http://www.w3.org/2000/svg" width="47" height="47" viewBox="0 0 47 47" fill="none">
    <path
        d="M5.01857 8.19909L12.9523 10.3441V19.5978C12.956 21.9926 13.9089 24.2883 15.6023 25.9816C17.2956 27.675 19.5913 28.628 21.9861 28.6316H24.5436C26.9383 28.628 29.234 27.675 30.9274 25.9816C32.6207 24.2883 33.5737 21.9926 33.5773 19.5978V10.3441L41.5111 8.19909C41.7967 8.11579 42.0476 7.9421 42.2261 7.70409C42.4046 7.46608 42.5011 7.1766 42.5011 6.87909C42.5011 6.58158 42.4046 6.2921 42.2261 6.05409C42.0476 5.81608 41.7967 5.64239 41.5111 5.55909L23.6361 0.0590884C23.3761 -0.0196961 23.0986 -0.0196961 22.8386 0.0590884L4.96357 5.55909C4.67952 5.64816 4.43206 5.82701 4.25835 6.06876C4.08465 6.31052 3.9941 6.60211 4.0003 6.89973C4.0065 7.19735 4.10912 7.48492 4.29274 7.71923C4.47636 7.95353 4.73106 8.12192 5.01857 8.19909ZM30.8273 19.5978C30.8237 21.2633 30.1605 22.8595 28.9828 24.0371C27.8052 25.2148 26.209 25.878 24.5436 25.8816H21.9861C20.3206 25.878 18.7244 25.2148 17.5468 24.0371C16.3692 22.8595 15.7059 21.2633 15.7023 19.5978V11.1003L22.8936 13.0941C23.1356 13.1675 23.394 13.1675 23.6361 13.0941L30.8273 11.1003V19.5978ZM23.2648 2.76784L36.2448 6.82409L23.2648 10.3441L10.2848 6.82409L23.2648 2.76784Z"
        fill="#3E0000"></path>
    <path
        d="M36.7123 29.3466C36.5528 29.1432 36.3392 28.9888 36.096 28.9013C35.8528 28.8137 35.5899 28.7965 35.3373 28.8516L23.2648 31.5741L11.1923 28.8241C10.9398 28.769 10.6768 28.7862 10.4336 28.8738C10.1904 28.9613 9.97681 29.1157 9.81732 29.3191L4.31732 36.1941C4.15772 36.3953 4.05768 36.6372 4.02852 36.8924C3.99935 37.1476 4.04224 37.4058 4.15232 37.6378C4.25979 37.877 4.43338 38.0804 4.65264 38.2241C4.87189 38.3679 5.12767 38.4459 5.38982 38.4491H41.1398C41.399 38.4484 41.6527 38.3744 41.8716 38.2357C42.0906 38.097 42.2659 37.8993 42.3773 37.6653C42.4874 37.4333 42.5303 37.1751 42.5011 36.9199C42.472 36.6647 42.3719 36.4228 42.2123 36.2216L36.7123 29.3466ZM8.24982 35.6991L11.4261 31.7253L22.9623 34.3241C23.1619 34.3652 23.3677 34.3652 23.5673 34.3241L35.1036 31.7528L38.2798 35.6991H8.24982Z"
        fill="#3E0000"></path>
</svg>