<svg width="45" height="36" viewBox="0 0 45 36" fill="none" xmlns="http://www.w3.org/2000/svg">
    <path
        d="M40.1665 0H5.02361C3.75263 0 2.53372 0.568927 1.635 1.58162C0.736292 2.59432 0.2314 3.96783 0.2314 5.4V30.6C0.2314 32.0322 0.736292 33.4057 1.635 34.4184C2.53372 35.4311 3.75263 36 5.02361 36H40.1665C41.4374 36 42.6564 35.4311 43.5551 34.4184C44.4538 33.4057 44.9587 32.0322 44.9587 30.6V5.4C44.9587 3.96783 44.4538 2.59432 43.5551 1.58162C42.6564 0.568927 41.4374 0 40.1665 0ZM3.4262 30.6V5.4C3.4262 4.92261 3.5945 4.46477 3.89407 4.12721C4.19364 3.78964 4.59995 3.6 5.02361 3.6C9.43471 3.6 13.0106 7.17591 13.0106 11.587V25.2C13.0106 25.6774 13.1789 26.1352 13.4785 26.4728C13.7781 26.8104 14.1844 27 14.608 27C15.0317 27 15.438 26.8104 15.7376 26.4728C16.0371 26.1352 16.2054 25.6774 16.2054 25.2V5.99611C16.2054 4.67277 17.2782 3.6 18.6015 3.6C19.9249 3.6 20.9976 4.67277 20.9976 5.9961V18C20.9976 25.9529 14.5505 32.4 6.59764 32.4H5.02361C4.59995 32.4 4.19364 32.2104 3.89407 31.8728C3.5945 31.5352 3.4262 31.0774 3.4262 30.6ZM41.7639 30.6C41.7639 31.0774 41.5956 31.5352 41.296 31.8728C40.9964 32.2104 40.5901 32.4 40.1665 32.4H38.5924C30.6395 32.4 24.1924 25.9529 24.1924 18C24.1924 10.0471 30.6395 3.6 38.5924 3.6H40.1665C40.5901 3.6 40.9964 3.78964 41.296 4.12721C41.5956 4.46477 41.7639 4.92261 41.7639 5.4V30.6Z"
        fill="#3E0000" />
    <path
        d="M36.9722 9H28.9852C28.5616 9 28.1553 9.18964 27.8557 9.52721C27.5561 9.86477 27.3878 10.3226 27.3878 10.8C27.3878 11.2774 27.5561 11.7352 27.8557 12.0728C28.1553 12.4104 28.5616 12.6 28.9852 12.6H36.9722C37.3959 12.6 37.8022 12.4104 38.1018 12.0728C38.4013 11.7352 38.5696 11.2774 38.5696 10.8C38.5696 10.3226 38.4013 9.86477 38.1018 9.52721C37.8022 9.18964 37.3959 9 36.9722 9Z"
        fill="#3E0000" />
    <path
        d="M36.9735 16.2002H32.1813C31.7577 16.2002 31.3514 16.3898 31.0518 16.7274C30.7522 17.065 30.5839 17.5228 30.5839 18.0002C30.5839 18.4776 30.7522 18.9354 31.0518 19.273C31.3514 19.6106 31.7577 19.8002 32.1813 19.8002H36.9735C37.3972 19.8002 37.8035 19.6106 38.1031 19.273C38.4027 18.9354 38.571 18.4776 38.571 18.0002C38.571 17.5228 38.4027 17.065 38.1031 16.7274C37.8035 16.3898 37.3972 16.2002 36.9735 16.2002Z"
        fill="#3E0000" />
    <path
        d="M36.9722 23.3994H28.9852C28.5616 23.3994 28.1553 23.5891 27.8557 23.9266C27.5561 24.2642 27.3878 24.722 27.3878 25.1994C27.3878 25.6768 27.5561 26.1346 27.8557 26.4722C28.1553 26.8098 28.5616 26.9994 28.9852 26.9994H36.9722C37.3959 26.9994 37.8022 26.8098 38.1018 26.4722C38.4013 26.1346 38.5696 25.6768 38.5696 25.1994C38.5696 24.722 38.4013 24.2642 38.1018 23.9266C37.8022 23.5891 37.3959 23.3994 36.9722 23.3994Z"
        fill="#3E0000" />
</svg>