<svg xmlns="http://www.w3.org/2000/svg" width="53" height="53" viewBox="0 0 53 53" fill="none">
    <path
        d="M13.7188 22.067V13.9484C13.7429 12.3525 14.0816 10.7771 14.7156 9.31243C15.3496 7.84773 16.2664 6.52253 17.4135 5.41276C18.5605 4.303 19.9153 3.43047 21.4001 2.84518C22.885 2.25989 24.4707 1.97334 26.0665 2.00195V2.00195C27.6622 1.97334 29.248 2.25989 30.7328 2.84518C32.2177 3.43047 33.5724 4.303 34.7195 5.41276C35.8665 6.52253 36.7833 7.84773 37.4173 9.31243C38.0513 10.7771 38.3901 12.3525 38.4142 13.9484V22.067"
        stroke="#3E0000" stroke-width="4" stroke-linecap="round" stroke-linejoin="round"></path>
    <path
        d="M9.08693 17.4365H12.1739C12.5832 17.4365 12.9758 17.5991 13.2653 17.8886C13.5547 18.1781 13.7173 18.5706 13.7173 18.98V28.2408C13.7173 28.6501 13.5547 29.0427 13.2653 29.3322C12.9758 29.6216 12.5832 29.7843 12.1739 29.7843H9.08693C8.26823 29.7843 7.48305 29.459 6.90414 28.8801C6.32523 28.3012 6 27.516 6 26.6973V20.5235C6 19.7047 6.32523 18.9196 6.90414 18.3407C7.48305 17.7618 8.26823 17.4365 9.08693 17.4365V17.4365Z"
        stroke="#3E0000" stroke-width="4" stroke-linecap="round" stroke-linejoin="round"></path>
    <path
        d="M43.0459 29.7842H39.9589C39.5496 29.7842 39.157 29.6216 38.8676 29.3321C38.5781 29.0427 38.4155 28.6501 38.4155 28.2407V18.9799C38.4155 18.5706 38.5781 18.178 38.8676 17.8885C39.157 17.5991 39.5496 17.4365 39.9589 17.4365H43.0459C43.8646 17.4365 44.6498 17.7617 45.2287 18.3406C45.8076 18.9195 46.1328 19.7047 46.1328 20.5234V26.6972C46.1328 27.516 45.8076 28.3011 45.2287 28.88C44.6498 29.4589 43.8646 29.7842 43.0459 29.7842V29.7842Z"
        stroke="#3E0000" stroke-width="4" stroke-linecap="round" stroke-linejoin="round"></path>
    <path
        d="M32.2383 38.2728C33.8757 38.2728 35.446 37.6223 36.6039 36.4645C37.7617 35.3067 38.4121 33.7363 38.4121 32.0989V25.1533"
        stroke="#3E0000" stroke-width="4" stroke-linecap="round" stroke-linejoin="round"></path>
    <path
        d="M32.2384 38.2727C32.2384 39.2961 31.8318 40.2776 31.1082 41.0012C30.3845 41.7249 29.4031 42.1314 28.3797 42.1314H23.7493C22.7259 42.1314 21.7444 41.7249 21.0208 41.0012C20.2972 40.2776 19.8906 39.2961 19.8906 38.2727C19.8906 37.2493 20.2972 36.2679 21.0208 35.5442C21.7444 34.8206 22.7259 34.4141 23.7493 34.4141H28.3797C29.4031 34.4141 30.3845 34.8206 31.1082 35.5442C31.8318 36.2679 32.2384 37.2493 32.2384 38.2727Z"
        stroke="#3E0000" stroke-width="4" stroke-linecap="round" stroke-linejoin="round"></path>
</svg>